<svg xmlns="http://www.w3.org/2000/svg" xmlns:xlink="http://www.w3.org/1999/xlink" viewBox="0 0 298.64 300.34"><defs><style>.cls-1{fill:#b52828;stroke:#1e1e1e;stroke-width:10.29px;}.cls-18,.cls-19,.cls-2{fill:#fff;}.cls-10,.cls-15,.cls-2{stroke:#000;}.cls-2{stroke-width:4.86px;}.cls-3{fill:none;stroke:#9e8f54;stroke-width:7px;stroke-dasharray:42 2;}.cls-11,.cls-12,.cls-3{stroke-miterlimit:10;}.cls-4{fill:#d12020;}.cls-5{fill:#dd7917;}.cls-6{fill:#e5e14a;}.cls-7{fill:#3ecc3e;}.cls-8{fill:#3b57e0;}.cls-9{fill:#a939d8;}.cls-10,.cls-14{fill:#6b431e;}.cls-10{stroke-width:1.83px;}.cls-11{fill:#5e3c1d;stroke:#492c12;}.cls-11,.cls-12{stroke-width:0.46px;}.cls-12,.cls-13{fill:#492c12;}.cls-12{stroke:#5e3c1d;}.cls-14{stroke:#442d17;stroke-width:1.94px;}.cls-15{stroke-width:0.92px;fill:url(#linear-gradient);}.cls-16{fill:#1e1e1e;}.cls-17,.cls-18{font-size:50.37px;font-family:NiagaraSolid-Reg, Niagara Solid;}</style><linearGradient id="linear-gradient" x1="58.78" y1="163.95" x2="147.93" y2="163.95" gradientUnits="userSpaceOnUse"><stop offset="0" stop-color="#fbff15"/><stop offset="0.87" stop-color="#bcb950"/></linearGradient></defs><title>Artboard 1</title><g id="Shapes"><path class="cls-1" d="M292.11,150.44C288.92,337.26,11,337.23,7.87,150.43,11.06-36.38,289-36.35,292.11,150.44Z"/><circle class="cls-2" cx="149.11" cy="146.17" r="67.1"/><circle class="cls-3" cx="149.95" cy="150.63" r="130.24"/><circle class="cls-4" cx="150.13" cy="34.98" r="7.32"/><circle class="cls-2" cx="149.11" cy="146.17" r="67.1"/><circle class="cls-5" cx="115.72" cy="40.11" r="7.32"/><circle class="cls-2" cx="149.11" cy="146.17" r="67.1"/><circle class="cls-6" cx="84.58" cy="55.61" r="7.32"/><circle class="cls-2" cx="149.11" cy="146.17" r="67.1"/><circle class="cls-7" cx="59.76" cy="79.99" r="7.32"/><circle class="cls-2" cx="149.11" cy="146.17" r="67.1"/><circle class="cls-8" cx="43.68" cy="110.84" r="7.32"/><circle class="cls-2" cx="149.11" cy="146.17" r="67.1"/><circle class="cls-9" cx="37.92" cy="145.15" r="7.32"/><circle class="cls-2" cx="149.11" cy="146.17" r="67.1"/><circle class="cls-8" cx="43.05" cy="179.56" r="7.32"/><circle class="cls-2" cx="149.11" cy="146.17" r="67.1"/><circle class="cls-7" cx="58.56" cy="210.7" r="7.32"/><circle class="cls-2" cx="149.11" cy="146.17" r="67.1"/><circle class="cls-6" cx="82.93" cy="235.53" r="7.32"/><circle class="cls-2" cx="149.11" cy="146.17" r="67.1"/><circle class="cls-2" cx="149.11" cy="146.17" r="67.1"/><circle class="cls-2" cx="149.11" cy="146.17" r="67.1"/><circle class="cls-2" cx="149.11" cy="146.17" r="67.1"/><circle class="cls-6" cx="213.64" cy="236.73" r="7.32"/><circle class="cls-2" cx="149.11" cy="146.17" r="67.1"/><circle class="cls-7" cx="238.47" cy="212.35" r="7.32"/><circle class="cls-2" cx="149.11" cy="146.17" r="67.1"/><circle class="cls-8" cx="254.55" cy="181.5" r="7.32"/><circle class="cls-2" cx="149.11" cy="146.17" r="67.1"/><circle class="cls-9" cx="260.3" cy="147.19" r="7.32"/><circle class="cls-2" cx="149.11" cy="146.17" r="67.1"/><circle class="cls-8" cx="255.18" cy="112.78" r="7.32"/><circle class="cls-2" cx="149.11" cy="146.17" r="67.1"/><circle class="cls-7" cx="239.67" cy="81.64" r="7.32"/><circle class="cls-2" cx="149.11" cy="146.17" r="67.1"/><circle class="cls-6" cx="215.29" cy="56.81" r="7.32"/><circle class="cls-2" cx="149.11" cy="146.17" r="67.1"/><circle class="cls-5" cx="184.44" cy="40.74" r="7.32"/></g><g id="Griffin"><path id="Head" class="cls-10" d="M64.89,146.39a29.76,29.76,0,0,1,9.76-10.6c1.26-.79,2.74-1.61,3.08-3.06.3-1.3-1.92-2.42-2.45-3.64-1.39-3.18,0-7.06,1.23-10.3a4.08,4.08,0,0,1,1.07-1.73,5.8,5.8,0,0,1,2.76-1,15,15,0,0,0,10.07-7.59c.82-1.57,1.44-3.38,2.93-4.35s4.11-.15,3.94,1.61a74,74,0,0,1,8.38-15.42,14.67,14.67,0,0,1,2,9.4C112.32,94,120.9,93.49,127,89.33a38,38,0,0,0,3.29-2.64l8-6.9a3.94,3.94,0,0,1,1.75-1c2.17-.42,3.27,2.74,2.58,4.85s-2.23,4.13-1.8,6.3q5.94-2.88,12.13-5.21a4.34,4.34,0,0,1-.7,4.45,86.13,86.13,0,0,0,32.38-23.49,7.58,7.58,0,0,1,.8,8.55,52.43,52.43,0,0,0,14.63-12.72c1.62,5.68.34,11.89-2.32,17.17s-6.59,9.8-10.55,14.19l13.11-4.69a50.24,50.24,0,0,1-16.72,16c2.31,1.52,5.22,1.69,8,2.06s5.71,1.15,7.34,3.4.75,6.24-2,6.61l13.82,5.12c.22,2.23-3.12,3.44-3.2,5.68,0,1.32,1.06,2.36,2.08,3.2l13,10.76a26.26,26.26,0,0,1-7.86,9.9,22.73,22.73,0,0,0,12.2,10,10.81,10.81,0,0,1-9.48,5.81,29,29,0,0,0,7.72,8.44,22.41,22.41,0,0,1-16.23-2.8,185.82,185.82,0,0,1,3.39,24.18c-3.46,1.46-7.55.73-10.86-1.05s-6-4.49-8.68-7.16l-3,15.08a13.79,13.79,0,0,1-1.84,5.3c-1.08,1.54-3.05,2.64-4.86,2.12-1.32-3.16-2.74-6.45-5.42-8.57s-7-2.52-9.28,0a11.19,11.19,0,0,1-1.77,2.09c-1.58,1.14-3.76.31-5.55-.45-7.21-3.05-16.84-3.93-21.72,2.19-.64.8-1.49,1.8-2.45,1.47-.57-.19-.87-.78-1.26-1.24-1.43-1.67-4.2-1.52-6-.26s-2.88,3.28-3.88,5.24a45.56,45.56,0,0,1-8.52-15.36c-.14,2.07-3.67,1.72-4.57-.15s-.36-4.09-.7-6.14c-.88-5.26-7.14-7.71-12.47-7.79A31.28,31.28,0,0,0,83,186.45a31.89,31.89,0,0,0-6.92,5.6c-1.5,1.61-3.43,5.64-6.14,4.22-2.11-1.1-3.85-4.82-5-6.83a42.6,42.6,0,0,1-3.4-7.88,45.75,45.75,0,0,1-2.08-16.88A42,42,0,0,1,64.89,146.39Z"/><g id="Hair"><path class="cls-11" d="M115.41,137.55c4.73-.35,9.46,1.13,14.19.8,5.5-.38,10.54-3.14,15.92-4.39a52.3,52.3,0,0,1,12.12-1,26.38,26.38,0,0,0,4.87-.25,23.28,23.28,0,0,0,6.11-2.3c2.25-1.13,4.47-2.31,6.66-3.56.89-.5,2-1,2.87-.42a1.84,1.84,0,0,1,.53,2,5.36,5.36,0,0,1-1.22,1.87l-2.85,3.26a20,20,0,0,1-4,3.82,14.41,14.41,0,0,1-8.13,2c-2.83-.05-5.63-.58-8.45-.85a48.71,48.71,0,0,0-20.3,2.31c-2.86,1-5.64,2.19-8.57,2.9a38.75,38.75,0,0,1-7.81.92c-2,.08-4,.08-6,0s-6-1.42-4.21-4.19C108.43,138.34,113.16,137.71,115.41,137.55Z"/><path class="cls-12" d="M168.08,103.36a126.17,126.17,0,0,1,27.17-9.48c-2.28,2.3-5.39,3.55-8.41,4.73l-16.43,6.45-3.07,1.21a31.92,31.92,0,0,1-5.2,1.7c-.55.11-2.38.59-2.76.13s0-1.24.28-1.51c.68-.7,2.31-.52,3.19-.81A45.85,45.85,0,0,0,168.08,103.36Z"/><path class="cls-11" d="M164.81,115.31a96.48,96.48,0,0,1,12.14-.45,11.77,11.77,0,0,0,4.19-.36,2.77,2.77,0,0,0,1.27-.79,1.47,1.47,0,0,0,.33-1.41,1.77,1.77,0,0,0-1.46-1c-.61-.1-1.25,0-1.86-.14a10.59,10.59,0,0,1-2.45-.94c-4.84-2.08-10.67-.27-15.52-2.32a13.36,13.36,0,0,0-1.68-.67,6.66,6.66,0,0,0-2-.16,4.86,4.86,0,0,0-2.94.88,5.62,5.62,0,0,0-1.34,2,19.17,19.17,0,0,0-1.29,3.32,5.12,5.12,0,0,0-.24,1.74c.06.56.73.51,1.24.61a27.45,27.45,0,0,0,7.41.13C162,115.63,163.39,115.46,164.81,115.31Z"/><path class="cls-12" d="M174.45,89.47c7.39-6.14,14.78-12.28,22.41-18.11a15.94,15.94,0,0,1-2.25,3.52,76.51,76.51,0,0,1-16.51,15,20.82,20.82,0,0,0-3.48,2.78,19.32,19.32,0,0,1-2.91,3.14c-2.65,1.83-6.74.89-8.94,3.24a7.26,7.26,0,0,1,1.56-1.22l1.26-1c.81-.63,1.59-1.3,2.39-2Z"/><path class="cls-12" d="M154.1,96.71c.89-.75,1.88-1.36,2.8-2.06,1.16-.88,2.2-1.91,3.31-2.85a76.82,76.82,0,0,1,7-4.88,94.8,94.8,0,0,0,13.89-11.31,8,8,0,0,1-1.95,2.92A142.18,142.18,0,0,1,163.53,93.2c-2,1.6-4,3.14-5.84,4.89a24.11,24.11,0,0,1-3,2.67c-.75.49-2.37,1.58-3.34,1.21C149.54,101.31,153.32,97.37,154.1,96.71Z"/><path id="_Path_" data-name="&lt;Path&gt;" class="cls-11" d="M106.5,117.77a52.72,52.72,0,0,0,8.06-4.58,10.5,10.5,0,0,1,1.77-.59,14.55,14.55,0,0,0,1.93-1.07c3.17-2,6.39-4,8.81-6.88a4.87,4.87,0,0,1,1.36-1.28,1.42,1.42,0,0,1,1.72.22,1.87,1.87,0,0,1,.28,1.21,12.4,12.4,0,0,1-3.15,7.57,29.84,29.84,0,0,1-6.39,5.34,39,39,0,0,1-7.8,4.22,24.26,24.26,0,0,1-10.84,1.44,1.5,1.5,0,0,1-.46-.09,1.14,1.14,0,0,1-.58-1.1,2.66,2.66,0,0,1,.88-1.82,7.74,7.74,0,0,1,1.73-1.14l2.68-1.45"/><path class="cls-11" d="M143.41,108.42a33.16,33.16,0,0,0,5.36-4c.62-.61,1.19-1.27,1.86-1.82,2.7-2.26,6.49-2.51,10-2.66,1,0,2.27,0,2.74,1s-.22,2-.89,2.82c-2.34,2.85-4.68,5.7-7.21,8.37s-5.18,5.08-8.5,6.43C143.1,120,139,120,135,120c-.9,0-2-.17-2.29-1a2.07,2.07,0,0,1,.38-1.59,21.74,21.74,0,0,1,3.92-4.78,22.19,22.19,0,0,1,3.09-2Z"/><path class="cls-11" d="M138.27,96c1.37-1,2.81-2.08,3.38-3.68a10.5,10.5,0,0,1,.47-1.33,1.27,1.27,0,0,1,1.13-.72,1.35,1.35,0,0,1,.86.52,5.71,5.71,0,0,1,1.1,3.48,18.21,18.21,0,0,1-1.3,8.62,28.85,28.85,0,0,1-2.63,4.36c-1.77,2.57-3.54,5.13-5.45,7.59a22.07,22.07,0,0,1-3.64,3.9,26.6,26.6,0,0,1-4.25,2.58c-3.19,1.66-6.44,3.35-10,4l5.6-8.17a13.07,13.07,0,0,0,1.61-2.84,9.94,9.94,0,0,0,.49-2.82,18.62,18.62,0,0,0-.4-4.77c-.27-1.24-1.13-2.49.32-3.15a59.49,59.49,0,0,0,8.27-4.48C135.35,98.09,136.81,97.05,138.27,96Z"/><path class="cls-11" d="M190.41,141.39A45.1,45.1,0,0,1,196,141a54.25,54.25,0,0,1,8.22.82l7.54,1.16c-.07-2.13-1.87-3.75-3.57-5a18.88,18.88,0,0,0-6.69-3.55,21.11,21.11,0,0,0-4.12-.43,54.08,54.08,0,0,0-11.24.32c-7.17,1.18-13.61,5.09-20.7,6.68a4,4,0,0,0-2.63,1.29,2.52,2.52,0,0,0,.78,3.23,5.91,5.91,0,0,0,3.48.94,10.69,10.69,0,0,0,4.4-.48,28.67,28.67,0,0,1,3.93-1.42q4.69-1.35,9.51-2.25Q187.64,141.75,190.41,141.39Z"/><path class="cls-11" d="M93.65,112.77q2.92-2.19,5.63-4.66c1.89-1.72,3.69-3.54,5.73-5.08a15.85,15.85,0,0,1,6.88-3.19c2-.31,4.08-.13,5.76-1.17"/><path class="cls-13" d="M118.15,188.83a2.85,2.85,0,0,1,.59.61,2.43,2.43,0,0,1,.19,2.06,10,10,0,0,1-.94,1.92,12.4,12.4,0,0,0-1.14,2.74,2.16,2.16,0,0,1-.29.74,1.58,1.58,0,0,1-1.29.55,2.38,2.38,0,0,1-1.15-.2,3,3,0,0,1-1.13-1.11,5.49,5.49,0,0,1-.91-2.14,9.57,9.57,0,0,1,.14-2.61,21.16,21.16,0,0,0,.16-2.39c0-.53-.25-1.54.09-2,.59-.8,3,.24,3.65.55A9.1,9.1,0,0,1,118.15,188.83Z"/><path class="cls-13" d="M120.38,182.07a8.59,8.59,0,0,0,4.28,2.23c1.58.38,3.22.54,4.79.95.78.2,1.55.46,2.31.72a38.78,38.78,0,0,1,7.87,3.57,16.76,16.76,0,0,1,6,6.15,2.35,2.35,0,0,1,.31.91.87.87,0,0,1-.41.83,1,1,0,0,1-.45.1,3.62,3.62,0,0,1-2-.44,9.79,9.79,0,0,1-2.65-2.82,20.07,20.07,0,0,0-7.47-5.59,66.67,66.67,0,0,0-8.88-3.11,11.68,11.68,0,0,1-3-1.23,4.36,4.36,0,0,1-1.77-2.05c-.12-.3-.67-1.46-.23-1.62S120.14,181.82,120.38,182.07Z"/><path class="cls-13" d="M127,177.69a2.29,2.29,0,0,0,1.45,1.26,8.62,8.62,0,0,0,2,.31,35.8,35.8,0,0,1,10.06,2.8,18,18,0,0,1,2.8,1.35,26.38,26.38,0,0,1,3.4,2.77,40.23,40.23,0,0,0,7.92,5.6,6.9,6.9,0,0,0,2.09.8,2.73,2.73,0,0,0,2.14-.47,3.43,3.43,0,0,0,1-1.89,6,6,0,0,0-.29-4.13c-.8-1.55-2.43-2.46-4-3.28l-6-3.2c-1.3-.68-2.59-1.37-3.95-1.93-4.56-1.86-9.61-2.12-14.53-2a3.84,3.84,0,0,0-2.55.62,5.62,5.62,0,0,0-.5.35C127.63,176.94,127.11,177.21,127,177.69Z"/><path class="cls-11" d="M146.91,153.92a1,1,0,0,1,.06-.6.9.9,0,0,1,.65-.37,4.42,4.42,0,0,1,3.57,1.41,23.16,23.16,0,0,0,2.91,2.7c2.17,1.41,5,1.16,7.52,1.51a27.32,27.32,0,0,1,5.59,1.56,21.67,21.67,0,0,1,6.25,3.22,8.57,8.57,0,0,1,3.39,6,2,2,0,0,1-.42,1.55,1.85,1.85,0,0,1-1,.45,7.39,7.39,0,0,1-4.38-.64,37.7,37.7,0,0,1-3.93-2.18,34.33,34.33,0,0,0-6.65-2.94c-2.55-.82-5.21-1.34-7.6-2.53a10.18,10.18,0,0,1-4.17-3.6,7.85,7.85,0,0,1-.86-2.37A23.59,23.59,0,0,1,146.91,153.92Z"/><path class="cls-11" d="M156.45,121.19c5,.21,10,.72,14.82-.27,2.37-.49,4.72-1.33,7.13-1.17,3,.19,5.65,1.89,8.06,3.66,1,.71,2,1.65,1.9,2.84-1.65.47-3.39,0-5.1-.22-5.95-.67-11.57,2.48-17.41,3.8s-11.82.8-17.68-.12c-1.88-.3-3.94-.75-5-2.29a5,5,0,0,1-.9-3.74c.44-1.24,2.47-1.51,3.57-1.78A38.5,38.5,0,0,1,156.45,121.19Z"/><path class="cls-11" d="M134.66,143.87a99.58,99.58,0,0,1,12-.31,39.69,39.69,0,0,0,11.85-1.41c.87-.27,1.93-.56,2.6.06a2.15,2.15,0,0,1,.51,1.64,2.85,2.85,0,0,1-.2,1.12,3.38,3.38,0,0,1-1.41,1.34q-1.46.93-2.94,1.8a21.19,21.19,0,0,1-3.19,1.61c-3.42,1.3-7.22,1-10.88,1.13-5.67.23-11.32,1.66-17,1a4.24,4.24,0,0,1-2.78-1.14C120.06,147,132.71,144.11,134.66,143.87Z"/><path class="cls-11" d="M169.4,144.62c3.07,1,6,2.4,9.17,3.08,4.1.87,8.42.43,12.46,1.53a9.51,9.51,0,0,1,4.13,2.14,5.1,5.1,0,0,1,1.65,4.22,2.68,2.68,0,0,1-.79,1.63,2.57,2.57,0,0,1-1.46.57,11.81,11.81,0,0,1-4.1-.8c-4.76-1.23-9.88.56-14.67-.51a39.22,39.22,0,0,1-3.94-1.26c-4.9-1.62-10.1-2.05-15.18-3a9.55,9.55,0,0,1-3.4-1.09,1.45,1.45,0,0,1-.76-1c-.07-.6.51-1.07,1-1.39,2-1.28,4.43-2.42,6.18-4,1.49-1.36,3.77-1.28,5.69-1.06A21,21,0,0,1,169.4,144.62Z"/><path class="cls-11" d="M128,131.84a7.54,7.54,0,0,0,5.45-.85,4.46,4.46,0,0,0,1.37-1.33,6.25,6.25,0,0,0,.66-2,7.6,7.6,0,0,0,.21-2.12c-.09-1-.57-1.93-.57-2.93a.83.83,0,0,1,.12-.49.78.78,0,0,1,.21-.16,2.71,2.71,0,0,1,3.33.85,5.87,5.87,0,0,1,1.05,3.52,10.68,10.68,0,0,1-.8,4.65,6.84,6.84,0,0,1-3.16,3.42,9,9,0,0,1-2.69.74,10.43,10.43,0,0,1-6.3-.75,9.08,9.08,0,0,1-2.32-1.81c-.4-.42-1.76-1.6-1.56-2.24.26-.84,1.74.34,2.19.55A12.69,12.69,0,0,0,128,131.84Z"/><path class="cls-13" d="M208.51,122.72a7.71,7.71,0,0,1-4.37,4.59c-1.41-1.6-3.55-2.32-5.61-2.86a66.13,66.13,0,0,0-7-1.45c-2.18-.33-5.5-.25-7.42-1.43s.37-2.06,1.59-2.37c4.43-1.11,10.21.1,14.59,1C201,120.4,208.6,122.43,208.51,122.72Z"/><path class="cls-13" d="M156.15,172.9c6,2.94,12.51,4.58,19,6.2a1.67,1.67,0,0,1-1.22.39l-6.14.2a19.7,19.7,0,0,1-2.66,0,16.39,16.39,0,0,1-3.43-.85,54.15,54.15,0,0,1-11.78-5.6c-.71-.45-4.52-2.45-4.27-3.37s2.81-.68,3.47-.46C151.55,170.18,153.83,171.76,156.15,172.9Z"/><path class="cls-13" d="M177,195a1.75,1.75,0,0,0-.66-1.49,25.42,25.42,0,0,0-8.6-5.44,17.3,17.3,0,0,1-2.18-1,24.42,24.42,0,0,1-4.16-3.66,25.58,25.58,0,0,0-6.21-4.34,22.57,22.57,0,0,0,2.42,3.38,20.47,20.47,0,0,0,1.74,1.62q6.36,5.47,13,10.57a6.34,6.34,0,0,0,2.71,1.43C175.79,196.13,176.86,195.73,177,195Z"/><path class="cls-13" d="M123.88,198.77a18.93,18.93,0,0,0,4.79,6.06.89.89,0,0,0,.33.18c.33.05.58-.27.74-.56s.49-.84.72-1.27a4.13,4.13,0,0,0,.69-2.09,4,4,0,0,0-.75-1.92,15,15,0,0,0-3.83-4.66,15.91,15.91,0,0,0-2.29-1.25,9,9,0,0,0-2.74-1c-1.3-.15-1,.56-.5,1.36C122.06,195.3,122.92,197.06,123.88,198.77Z"/><path class="cls-14" d="M179.43,181.56c7,1.33,12.61,6.45,18.65,10.33a1.58,1.58,0,0,0,.81.32c.7,0,1.07-.87,1.14-1.59a13.35,13.35,0,0,0-1.4-6.29A94.15,94.15,0,0,0,191.16,170a67.7,67.7,0,0,0,9.54,3.66c4.16,1.13,8.5,1.46,12.62,2.72a50,50,0,0,1,6.91,2.86,1.15,1.15,0,0,0,.8.16c.51-.14.58-.85.5-1.39a10.8,10.8,0,0,0-3-5.42c-1.42-1.53-3-2.86-4.34-4.49-1.11-1.39-2-3-3-4.43a25.14,25.14,0,0,0-9.62-8.24"/><path class="cls-13" d="M191.88,109.16a16.94,16.94,0,0,1,4.23.94,5.31,5.31,0,0,1,3.06,2.89,1.27,1.27,0,0,1-.19,1.26,1.85,1.85,0,0,1-.37.32,12.86,12.86,0,0,1-2.22,1.27c-3.32-2.09-7.21-3-10.75-4.75a28.21,28.21,0,0,1-6.89-4.65,108.86,108.86,0,0,0,13.13,2.72"/><path class="cls-11" d="M107.44,111q2.93-2.19,5.63-4.65c1.89-1.72,4-3.21,6-4.74s4.1-3.13,6.62-3.53c1.95-.31,4.08-.13,5.76-1.18"/></g><path id="Beak" class="cls-15" d="M78.31,133.28a9.2,9.2,0,0,1,6.41-2,27.5,27.5,0,0,1,6.75,1.35l9.6,2.77c2.56.74,5.38,1.67,6.66,4,.47.85.69,1.83,1.22,2.64,1.49,2.29,4.67,2.49,7.37,2.91,3.09.48,6.22,1.64,8.3,4a9.4,9.4,0,0,0,1.55,1.6,6.33,6.33,0,0,0,3.53.74c5,.08,10.26.36,14.76,2.64a6.31,6.31,0,0,1,3.14,2.88c.84,1.95-.08,4.18-1,6.06a11.34,11.34,0,0,1-2.14,3.14,11.85,11.85,0,0,1-4.22,2.17l-7.69,2.73c-.66.23-1.42.58-1.55,1.27s.46,1.3.67,2c.49,1.65-1.42,3.06-3.13,3.24s-3.51-.29-5.1.34c-1.41.55-2.4,1.86-3.76,2.51a24.71,24.71,0,0,0-3.21,1.22c-.65.42-1.15,1-1.8,1.47-2.12,1.37-5.12.11-7.35,1.29-1-1.76-3.42-1.95-5.44-2a67.17,67.17,0,0,0-8.86.3,17.72,17.72,0,0,0-6.53,2.36,31.75,31.75,0,0,0-6.06,3.81c-2.4,2.05-4.49,4.44-6.73,6.66-.79.78-1.84,1.63-2.88,1.26a3,3,0,0,1-1.15-.94,42,42,0,0,1-6.84-11.23A62.54,62.54,0,0,1,59,169.17a27.29,27.29,0,0,1,.15-8.5,34.08,34.08,0,0,1,1.53-5.62,72.6,72.6,0,0,1,2.74-6.86,39.2,39.2,0,0,1,6.88-9C73.45,136.4,75.17,136.07,78.31,133.28Z"/><path id="Mouth-2" data-name="Mouth" class="cls-16" d="M87.1,177.16c5.27-3.2,11.29-4.95,17.25-6.55s12-3.11,17.51-5.92c2.87-1.47,5.57-3.28,8.53-4.55a25.47,25.47,0,0,1,5.67-1.67,6.43,6.43,0,0,1,3.84.25,2.7,2.7,0,0,1,1.55,3.2,3.52,3.52,0,0,1-1.8,1.66c-4.58,2.38-10.06,2.16-14.94,3.82-3.58,1.21-6.76,3.41-10.31,4.72s-7.23,1.71-10.87,2.5A48.2,48.2,0,0,0,86,182.23a42.45,42.45,0,0,0-3.73,3.09,28.75,28.75,0,0,0-3.46,3.33c-.55.7-2.31,4.39-2.48,3.29s2.21-6.89,2.79-7.67A27.73,27.73,0,0,1,87.1,177.16Z"/><path id="Nostril" class="cls-16" d="M90,141.81a2.3,2.3,0,0,0-1.13,1.25,1.94,1.94,0,0,0,.76,1.95,4.83,4.83,0,0,0,2.05.81c.42.09.83.16,1.25.21a6.4,6.4,0,0,0,2.58-.05,2.78,2.78,0,0,0,1.91-1.63,2.21,2.21,0,0,0-.75-2.38,4.5,4.5,0,0,0-3.2-.74A7.32,7.32,0,0,0,90,141.81Z"/><path id="Eye" d="M127.62,123.26A9.61,9.61,0,0,1,129,122a5.9,5.9,0,0,1,2.4-1,2.72,2.72,0,0,1,1.6.12,2.58,2.58,0,0,1,.67.46A5,5,0,0,1,135,124a8.1,8.1,0,0,1,.13,2.78,7.21,7.21,0,0,1-.15.93,5.56,5.56,0,0,1-2,3.11,4.2,4.2,0,0,1-1.76.83,6.2,6.2,0,0,1-1.22.07,7.14,7.14,0,0,1-1.53-.13,5.3,5.3,0,0,1-2.51-1.44,9.79,9.79,0,0,1-1.1-1.31c-.29-.41-.71-.8-.43-1.29a21.11,21.11,0,0,1,2-2.8C126.78,124.2,127.19,123.72,127.62,123.26Z"/></g><g id="Text"><text class="cls-17" transform="translate(86.58 96.19) rotate(-32.05) scale(0.94 1)">S</text><text class="cls-17" transform="translate(96.97 89.52) rotate(-25.03) scale(0.94 1)">T</text><text class="cls-17" transform="translate(110.42 83.43) rotate(-19.44) scale(0.94 1)">-</text><text class="cls-17" transform="matrix(0.91, -0.23, 0.25, 0.97, 116.38, 81.15)">A</text><text class="cls-17" transform="translate(127.83 77.97) rotate(-6.78) scale(0.94 1)">M</text><text class="cls-17" transform="matrix(0.94, 0.02, -0.02, 1, 144.11, 76.05)">B</text><text class="cls-17" transform="matrix(0.93, 0.14, -0.15, 0.99, 157.5, 76.26)">R</text><text class="cls-17" transform="matrix(0.9, 0.25, -0.27, 0.96, 170.97, 78.2)">O</text><text class="cls-17" transform="translate(183.82 81.92) rotate(21.1) scale(0.94 1)">I</text><text class="cls-17" transform="translate(190.41 84.29) rotate(26.3) scale(0.94 1)">S</text><text class="cls-17" transform="matrix(0.79, 0.51, -0.54, 0.84, 201.56, 89.72)">E</text><text class="cls-18" transform="translate(87.04 94.94) rotate(-32.05) scale(0.94 1)">S</text><text class="cls-18" transform="translate(97.43 88.27) rotate(-25.03) scale(0.94 1)">T</text><text class="cls-18" transform="translate(110.89 82.17) rotate(-19.44) scale(0.94 1)">-</text><text class="cls-18" transform="matrix(0.91, -0.23, 0.25, 0.97, 116.84, 79.9)">A</text><text class="cls-18" transform="translate(128.29 76.72) rotate(-6.78) scale(0.94 1)">M</text><text class="cls-18" transform="matrix(0.94, 0.02, -0.02, 1, 144.57, 74.8)">B</text><text class="cls-18" transform="matrix(0.93, 0.14, -0.15, 0.99, 157.96, 75.01)">R</text><text class="cls-18" transform="matrix(0.9, 0.25, -0.27, 0.96, 171.43, 76.95)">O</text><text class="cls-18" transform="translate(184.28 80.66) rotate(21.1) scale(0.94 1)">I</text><text class="cls-18" transform="translate(190.87 83.03) rotate(26.3) scale(0.94 1)">S</text><text class="cls-18" transform="matrix(0.79, 0.51, -0.54, 0.84, 202.02, 88.47)">E</text><path d="M106.52,258.7q-3.17-1.26-6.27-2.7l.12-.53,1.19.55q1.51-7,3-14-2.82,6.72-5.82,13.31c-1-.49-2-1-3-1.52q.21-8,.64-15.94-1.8,6.88-3.59,13.75l1.16.64c0,.18-.09.35-.13.53-1.17-.64-2.32-1.29-3.46-2,0-.17.09-.34.14-.52l1.14.67,5.1-19.08-1-.61c0-.17.09-.35.14-.52q2.2,1.31,4.46,2.49-.49,8.68-.73,17.44,3.24-7.29,6.27-14.72,2.3,1,4.64,2c0,.18-.07.35-.1.53l-1.1-.44-3.87,19.69,1.21.48C106.59,258.34,106.55,258.52,106.52,258.7Z"/><path d="M121,260.31c-.1.85-.78,1.44-2,1.73a8.34,8.34,0,0,1-4.37-.33,10,10,0,0,1-4-2.29c-1-1-1.49-1.94-1.34-2.77q1.35-7.54,2.71-15.09c.15-.84.81-1.35,2-1.58a8.19,8.19,0,0,1,4,.37,9.79,9.79,0,0,1,3.72,2,3.13,3.13,0,0,1,1.34,2.6c-.15,1.14-.29,2.28-.43,3.42-1.25-.31-2.5-.65-3.75-1,.23-1.58.45-3.16.67-4.73a1.23,1.23,0,0,0-.41-1,2.82,2.82,0,0,0-1.23-.74,2.26,2.26,0,0,0-1.33,0,.83.83,0,0,0-.66.67q-1.44,8.91-2.87,17.82a1.21,1.21,0,0,0,.44,1,3.14,3.14,0,0,0,1.35.8,2.56,2.56,0,0,0,1.46.08c.42-.13.65-.35.7-.69l.68-4.73c1.29.38,2.59.73,3.9,1.06C121.31,258,121.16,259.17,121,260.31Z"/><path d="M135.91,266c-2.22-.25-4.44-.56-6.64-.94,0-.18,0-.37,0-.55l1.27.21q-.21-3.18-.4-6.36-1.77-.3-3.54-.66-.81,3-1.63,6l1.26.26-.06.55c-1.27-.25-2.54-.53-3.8-.83l.06-.54,1.25.28q2.93-10,5.52-20.08c1.23.24,2.47.45,3.7.64q.7,10.67,1.73,21.34l1.27.15Zm-5.73-8.19q-.35-5.92-.58-11.84-1.4,5.61-2.86,11.2C127.88,257.42,129,257.64,130.18,257.83Z"/><path d="M151.32,245.7l-1.16,0q.06,9,.13,18c0,.86-.59,1.61-1.79,2.23a9.92,9.92,0,0,1-8.7-.35c-1.18-.71-1.74-1.5-1.7-2.36l.84-18-1.18-.12,0-.56q3,.33,6.07.46c0,.19,0,.38,0,.56l-1.17-.06q-.27,9.67-.55,19.35a1.06,1.06,0,0,0,.57.9,3,3,0,0,0,2.89.12,1,1,0,0,0,.61-.86l.21-19.36-1.17,0c0-.19,0-.38,0-.56,2,.07,4,.07,6.07,0Z"/><path d="M165,262.55a2.81,2.81,0,0,1-1.52,2.45,8.47,8.47,0,0,1-4.13,1.38,8,8,0,0,1-4.26-.6,2.51,2.51,0,0,1-1.74-2.14c0-1.15,0-2.31-.07-3.47,1.33-.05,2.67-.13,4-.24.06,1.61.13,3.22.19,4.82,0,.82.65,1.19,1.85,1.08s1.75-.59,1.71-1.41c-.07-1.25-.14-2.49-.2-3.73a3.49,3.49,0,0,0-1.34-2.56q-2.59-2.16-5.09-4.42a3.68,3.68,0,0,1-1.31-2.7c0-1,0-2-.07-2.93a2.74,2.74,0,0,1,1.5-2.3,8.13,8.13,0,0,1,3.81-1.21,7.56,7.56,0,0,1,3.85.49,2.42,2.42,0,0,1,1.7,2c.08,1.15.16,2.3.25,3.45-1.28.19-2.55.35-3.83.49l-.27-4.81c0-.82-.6-1.17-1.68-1.06s-1.62.55-1.59,1.37c0,1.2.09,2.4.14,3.6a3.49,3.49,0,0,0,1.26,2.58q2.52,2.17,5.15,4.23a3.56,3.56,0,0,1,1.47,2.59C164.9,260.52,165,261.54,165,262.55Z"/><path d="M179.75,262.44a114.9,114.9,0,0,1-12.37,2.76l0-.55,1.27-.22q-.89-10.14-1.78-20.29l-1.15.2,0-.56c2-.33,4-.72,6-1.17l.06.55-1.15.26q1.08,10.11,2.15,20.21c1-.21,2-.44,3-.69l-.69-5.82c1.3-.32,2.59-.66,3.88-1C179.16,258.21,179.46,260.33,179.75,262.44Z"/><path d="M193.79,257.48q-3.15,1.35-6.34,2.49l-.09-.54,1.22-.44c-.66-1.91-1.31-3.83-2-5.74-1.14.41-2.29.8-3.44,1.18,0,2.14,0,4.28,0,6.42l1.23-.4.09.54c-1.24.41-2.49.8-3.74,1.16,0-.18-.05-.36-.08-.54l1.24-.37q.22-10.8.11-21.56c1.2-.41,2.38-.84,3.57-1.29q3.3,9.62,6.88,19.06l1.21-.5C193.71,257.12,193.75,257.3,193.79,257.48Zm-7.3-4.74Q184.71,247.37,183,242q.12,5.94.14,11.92C184.27,253.52,185.38,253.14,186.49,252.74Z"/><path d="M201.65,231.24l-1.05.61q2.63,9.79,5.24,19.6c-1,.57-2,1.12-3,1.66q-4.81-6.37-9.28-13.12,1.72,7.72,3.43,15.46l1.19-.56.12.52c-1.19.57-2.38,1.12-3.58,1.65,0-.18-.07-.35-.11-.53l1.19-.54q-2.1-9.77-4.21-19.53l-1.09.48c0-.17-.07-.35-.11-.53,1.47-.64,2.93-1.33,4.37-2,2.67,3.95,5.43,7.82,8.29,11.57q-1.77-6.75-3.52-13.5l-1.06.59c0-.18-.08-.35-.13-.53,1-.57,2.1-1.16,3.14-1.78C201.55,230.89,201.6,231.07,201.65,231.24Z"/><path class="cls-19" d="M106.66,257.64q-3.16-1.26-6.27-2.71l.12-.53,1.19.55,3-14q-2.83,6.71-5.83,13.31c-1-.49-2-1-3-1.52q.21-8,.64-15.94l-3.58,13.75,1.15.64-.13.52c-1.16-.63-2.31-1.29-3.46-2,0-.18.1-.35.14-.52l1.15.67q2.55-9.54,5.09-19.09l-1-.6c0-.18.09-.35.14-.52q2.2,1.31,4.46,2.49-.5,8.68-.72,17.44,3.23-7.29,6.26-14.73,2.31,1,4.65,2c0,.18-.07.36-.11.54l-1.1-.44q-1.94,9.84-3.86,19.68l1.21.49C106.73,257.28,106.7,257.46,106.66,257.64Z"/><path class="cls-19" d="M121.17,259.25c-.11.85-.78,1.43-2,1.72a8.42,8.42,0,0,1-4.37-.32,10,10,0,0,1-4-2.29c-1.06-1-1.5-1.95-1.35-2.78q1.35-7.54,2.71-15.09c.15-.83.81-1.35,2-1.57a8.17,8.17,0,0,1,4,.36,9.65,9.65,0,0,1,3.72,2,3.1,3.1,0,0,1,1.34,2.6l-.42,3.42q-1.89-.48-3.75-1c.22-1.58.44-3.15.67-4.73a1.22,1.22,0,0,0-.41-1,2.73,2.73,0,0,0-1.23-.74,2.19,2.19,0,0,0-1.33-.06.86.86,0,0,0-.67.68q-1.43,8.91-2.87,17.82a1.27,1.27,0,0,0,.44,1,3.14,3.14,0,0,0,1.35.8,2.55,2.55,0,0,0,1.46.07.86.86,0,0,0,.71-.68l.67-4.73c1.3.38,2.6.73,3.9,1.06Z"/><path class="cls-19" d="M136.05,265c-2.22-.25-4.43-.57-6.64-.94,0-.19,0-.37.05-.56q.63.12,1.26.21-.21-3.18-.4-6.36c-1.18-.2-2.36-.42-3.54-.65-.53,2-1.08,4-1.63,6l1.26.26c0,.18,0,.36,0,.55-1.28-.26-2.54-.53-3.81-.83l.06-.55,1.26.29q2.91-10,5.52-20.08c1.23.23,2.46.44,3.7.63q.71,10.68,1.72,21.34c.42.06.85.1,1.27.15Zm-5.73-8.19q-.33-5.92-.58-11.85-1.38,5.63-2.86,11.21C128,256.36,129.17,256.57,130.32,256.77Z"/><path class="cls-19" d="M151.47,244.63l-1.17,0q.06,9,.13,18c0,.86-.59,1.61-1.79,2.22a8.68,8.68,0,0,1-4.38.84,9,9,0,0,1-4.32-1.18c-1.17-.71-1.73-1.51-1.69-2.37l.84-18c-.4,0-.79-.07-1.19-.12l0-.55c2,.21,4,.37,6.08.46,0,.19,0,.37,0,.56l-1.16-.06q-.29,9.66-.56,19.34a1.06,1.06,0,0,0,.58.91,2.7,2.7,0,0,0,1.42.42,2.61,2.61,0,0,0,1.46-.31,1,1,0,0,0,.61-.86l.21-19.36-1.16,0c0-.18,0-.37,0-.55q3,.09,6.06,0C151.46,244.26,151.47,244.45,151.47,244.63Z"/><path class="cls-19" d="M165.19,261.49a2.84,2.84,0,0,1-1.52,2.44,8.51,8.51,0,0,1-4.14,1.39,8,8,0,0,1-4.26-.6c-1.14-.55-1.72-1.27-1.74-2.14,0-1.16,0-2.31-.07-3.47,1.34-.06,2.67-.14,4-.24l.18,4.82c0,.82.65,1.18,1.85,1.07s1.76-.59,1.71-1.41c-.06-1.24-.13-2.48-.2-3.73a3.48,3.48,0,0,0-1.33-2.56q-2.6-2.15-5.09-4.41a3.68,3.68,0,0,1-1.32-2.71l-.06-2.93a2.72,2.72,0,0,1,1.5-2.3,8.09,8.09,0,0,1,3.8-1.2,7.62,7.62,0,0,1,3.86.48,2.43,2.43,0,0,1,1.69,2c.09,1.16.17,2.31.25,3.46-1.27.19-2.55.35-3.83.49-.09-1.61-.17-3.21-.26-4.81-.05-.82-.61-1.17-1.68-1.07s-1.63.55-1.6,1.37c.05,1.2.1,2.41.14,3.61a3.49,3.49,0,0,0,1.26,2.57c1.69,1.45,3.4,2.87,5.15,4.24a3.55,3.55,0,0,1,1.48,2.59C165,259.45,165.11,260.47,165.19,261.49Z"/><path class="cls-19" d="M179.89,261.38a112.5,112.5,0,0,1-12.37,2.75l0-.55,1.26-.22q-.88-10.14-1.78-20.29l-1.15.2,0-.55q3-.5,6-1.17l.06.55-1.14.25q1.07,10.11,2.14,20.22,1.51-.33,3-.69c-.23-1.94-.47-3.89-.7-5.83,1.3-.31,2.6-.65,3.89-1Z"/><path class="cls-19" d="M193.93,256.41q-3.13,1.35-6.33,2.5c0-.18-.06-.36-.1-.54l1.22-.45c-.65-1.91-1.31-3.82-1.95-5.74-1.14.42-2.28.81-3.43,1.19q0,3.19,0,6.41l1.24-.39c0,.18,0,.36.08.54-1.24.41-2.48.79-3.74,1.16,0-.18,0-.36-.07-.55l1.23-.36q.22-10.81.11-21.57c1.2-.4,2.39-.83,3.57-1.28q3.32,9.6,6.89,19.06l1.2-.51C193.86,256.06,193.89,256.24,193.93,256.41Zm-7.3-4.74c-1.18-3.57-2.35-7.16-3.48-10.77q.12,6,.15,11.92C184.41,252.46,185.53,252.07,186.63,251.67Z"/><path class="cls-19" d="M201.79,230.18l-1,.6q2.61,9.81,5.23,19.61-1.47.84-3,1.65-4.81-6.37-9.27-13.12,1.71,7.74,3.43,15.46l1.18-.56.12.53c-1.18.57-2.38,1.12-3.57,1.65l-.12-.54,1.2-.53q-2.11-9.77-4.22-19.54l-1.08.49-.12-.53q2.2-1,4.38-2,4,5.94,8.28,11.58-1.75-6.75-3.52-13.5l-1,.58c-.05-.17-.09-.35-.13-.52,1-.58,2.09-1.17,3.13-1.78C201.7,229.83,201.74,230,201.79,230.18Z"/></g></svg>